<svg width="81" height="65" viewBox="0 0 81 65" fill="none" xmlns="http://www.w3.org/2000/svg">
<path d="M68.2734 0L81 20.3125H66.7828L57.0516 0H68.2734ZM50.2734 0L60.0047 20.3125H20.9953L30.7266 0H50.2734ZM12.7266 0H23.9484L14.2172 20.3125H0L12.7266 0ZM0 24.375H14.1609L31.4578 56.3291C31.6687 56.7227 31.0781 57.0781 30.7547 56.748L0 24.375ZM20.8406 24.375H60.1594L40.8937 64.7715C40.7531 65.0762 40.2609 65.0762 40.1203 64.7715L20.8406 24.375ZM49.5422 56.3291L66.8391 24.375H81L50.2453 56.7354C49.9219 57.0781 49.3312 56.7227 49.5422 56.3291Z" fill="#2FC194"/>
</svg>
