<svg width="23" height="22" viewBox="0 0 23 22" fill="none" xmlns="http://www.w3.org/2000/svg">
<path fill-rule="evenodd" clip-rule="evenodd" d="M6.77637 0.066C7.99824 0.012 8.38783 0 11.5003 0C14.6128 0 15.0024 0.013 16.2232 0.066C17.4441 0.119 18.2774 0.306 19.0066 0.577C19.7701 0.854 20.4628 1.287 21.0357 1.847C21.6191 2.396 22.0691 3.06 22.3566 3.794C22.6399 4.494 22.8337 5.294 22.8899 6.464C22.9462 7.639 22.9587 8.013 22.9587 11C22.9587 13.988 22.9451 14.362 22.8899 15.535C22.8347 16.705 22.6399 17.505 22.3566 18.205C22.0691 18.9391 21.6183 19.6042 21.0357 20.154C20.4628 20.714 19.7701 21.146 19.0066 21.422C18.2774 21.694 17.4441 21.88 16.2253 21.934C15.0024 21.988 14.6128 22 11.5003 22C8.38783 22 7.99824 21.987 6.77637 21.934C5.55762 21.881 4.72428 21.694 3.99512 21.422C3.23045 21.146 2.53764 20.7133 1.96491 20.154C1.38197 19.6047 0.930862 18.9399 0.643034 18.206C0.360742 17.506 0.166992 16.706 0.110742 15.536C0.0544922 14.361 0.0419922 13.987 0.0419922 11C0.0419922 8.012 0.0555338 7.638 0.110742 6.466C0.16595 5.294 0.360742 4.494 0.643034 3.794C0.931287 3.06008 1.38274 2.39531 1.96595 1.846C2.53787 1.2865 3.22998 0.853443 3.99408 0.577C4.72324 0.306 5.55658 0.12 6.77533 0.066H6.77637ZM16.1305 2.046C14.9222 1.993 14.5597 1.982 11.5003 1.982C8.44095 1.982 8.07845 1.993 6.87012 2.046C5.75241 2.095 5.14616 2.274 4.74199 2.425C4.20762 2.625 3.82533 2.862 3.42428 3.247C3.04412 3.60205 2.75155 4.03428 2.56803 4.512C2.41074 4.9 2.22428 5.482 2.17324 6.555C2.11803 7.715 2.10658 8.063 2.10658 11C2.10658 13.937 2.11803 14.285 2.17324 15.445C2.22428 16.518 2.41074 17.1 2.56803 17.488C2.75137 17.965 3.04408 18.398 3.42428 18.753C3.79408 19.118 4.24512 19.399 4.74199 19.575C5.14616 19.726 5.75241 19.905 6.87012 19.954C8.07845 20.007 8.43991 20.018 11.5003 20.018C14.5607 20.018 14.9222 20.007 16.1305 19.954C17.2482 19.905 17.8545 19.726 18.2587 19.575C18.793 19.375 19.1753 19.138 19.5764 18.753C19.9566 18.398 20.2493 17.965 20.4326 17.488C20.5899 17.1 20.7764 16.518 20.8274 15.445C20.8826 14.285 20.8941 13.937 20.8941 11C20.8941 8.063 20.8826 7.715 20.8274 6.555C20.7764 5.482 20.5899 4.9 20.4326 4.512C20.2243 3.999 19.9774 3.632 19.5764 3.247C19.2065 2.88207 18.7563 2.60121 18.2587 2.425C17.8545 2.274 17.2482 2.095 16.1305 2.046ZM10.0368 14.391C10.8541 14.7176 11.7643 14.7617 12.6117 14.5157C13.4592 14.2697 14.1914 13.7489 14.6833 13.0422C15.1751 12.3356 15.3962 11.4869 15.3087 10.6411C15.2212 9.79534 14.8305 9.00497 14.2035 8.405C13.8037 8.02148 13.3203 7.72781 12.7882 7.54515C12.256 7.36248 11.6883 7.29536 11.1258 7.34862C10.5634 7.40187 10.0203 7.57418 9.53554 7.85313C9.0508 8.13208 8.63652 8.51074 8.32252 8.96185C8.00851 9.41296 7.80261 9.92529 7.71961 10.462C7.63662 10.9986 7.67861 11.5463 7.84255 12.0655C8.0065 12.5847 8.28833 13.0626 8.66774 13.4647C9.04716 13.8668 9.51473 14.1832 10.0368 14.391ZM7.33574 7.002C7.88264 6.47697 8.53191 6.0605 9.24647 5.77636C9.96103 5.49222 10.7269 5.34597 11.5003 5.34597C12.2738 5.34597 13.0396 5.49222 13.7542 5.77636C14.4687 6.0605 15.118 6.47697 15.6649 7.002C16.2118 7.52702 16.6456 8.15032 16.9416 8.8363C17.2376 9.52228 17.3899 10.2575 17.3899 11C17.3899 11.7425 17.2376 12.4777 16.9416 13.1637C16.6456 13.8497 16.2118 14.473 15.6649 14.998C14.5604 16.0583 13.0623 16.654 11.5003 16.654C9.9383 16.654 8.44026 16.0583 7.33574 14.998C6.23123 13.9377 5.61072 12.4995 5.61072 11C5.61072 9.50046 6.23123 8.06234 7.33574 7.002ZM18.6962 6.188C18.8317 6.06527 18.9402 5.91768 19.0152 5.75397C19.0903 5.59027 19.1303 5.41377 19.1331 5.23493C19.1358 5.05609 19.1011 4.87855 19.031 4.71281C18.961 4.54707 18.857 4.39651 18.7253 4.27004C18.5935 4.14357 18.4367 4.04376 18.2641 3.97652C18.0914 3.90928 17.9065 3.87598 17.7202 3.87858C17.5339 3.88119 17.35 3.91965 17.1795 3.9917C17.009 4.06374 16.8553 4.1679 16.7274 4.298C16.4788 4.55103 16.3426 4.88712 16.3479 5.23493C16.3532 5.58274 16.4995 5.91488 16.7557 6.16084C17.0119 6.40681 17.3579 6.54723 17.7202 6.5523C18.0825 6.55737 18.4326 6.42669 18.6962 6.188Z" fill="#89969F"/>
</svg>
