<svg width="66" height="64" viewBox="0 0 66 64" fill="none" xmlns="http://www.w3.org/2000/svg">
<path d="M35.3127 40.2667L33 34.6667L30.6873 40.2667L24.75 40.7787L29.26 44.7494L27.9015 50.6667L33 47.5227L38.0985 50.6667L36.74 44.7494L41.25 40.7787L35.3127 40.2667Z" fill="#2FC194"/>
<path d="M16.5 5.33325H49.5V10.6666H16.5V5.33325Z" fill="#2FC194"/>
<path d="M11 16H55V21.3333H11V16Z" fill="#2FC194"/>
<path d="M55 32.0001V53.3334H11V32.0001H55ZM55 26.6667H11C9.54131 26.6667 8.14236 27.2287 7.11091 28.2288C6.07946 29.229 5.5 30.5856 5.5 32.0001V53.3334C5.5 54.7479 6.07946 56.1045 7.11091 57.1047C8.14236 58.1049 9.54131 58.6668 11 58.6668H55C56.4587 58.6668 57.8576 58.1049 58.8891 57.1047C59.9205 56.1045 60.5 54.7479 60.5 53.3334V32.0001C60.5 30.5856 59.9205 29.229 58.8891 28.2288C57.8576 27.2287 56.4587 26.6667 55 26.6667Z" fill="#2FC194"/>
</svg>
