<svg width="26" height="24" viewBox="0 0 26 24" fill="none" xmlns="http://www.w3.org/2000/svg">
<path d="M24.6048 8.34474L17.1664 7.26369L13.8412 0.522472C13.7503 0.337902 13.6009 0.188487 13.4164 0.0976671C12.9535 -0.130849 12.391 0.0595812 12.1595 0.522472L8.83433 7.26369L1.39585 8.34474C1.19077 8.37404 1.00327 8.47072 0.85972 8.6172C0.68617 8.79558 0.590536 9.03556 0.593832 9.28441C0.597129 9.53327 0.699085 9.77063 0.877298 9.94435L6.25914 15.1914L4.98765 22.6006C4.95783 22.773 4.97691 22.9502 5.04271 23.1123C5.1085 23.2743 5.2184 23.4147 5.35992 23.5175C5.50145 23.6203 5.66894 23.6814 5.84341 23.6938C6.01788 23.7063 6.19235 23.6696 6.34703 23.5879L13.0003 20.0899L19.6537 23.5879C19.8353 23.6846 20.0463 23.7168 20.2484 23.6817C20.7582 23.5938 21.1009 23.1104 21.013 22.6006L19.7416 15.1914L25.1234 9.94435C25.2699 9.8008 25.3666 9.61329 25.3959 9.40822C25.475 8.89552 25.1175 8.42091 24.6048 8.34474Z" fill="#2FC194"/>
</svg>
