<svg width="194" height="30" viewBox="0 0 194 30" fill="none" xmlns="http://www.w3.org/2000/svg">
<path d="M108.605 10.3447L101.166 9.26369L97.8412 2.52247C97.7503 2.3379 97.6009 2.18849 97.4164 2.09767C96.9535 1.86915 96.391 2.05958 96.1595 2.52247L92.8343 9.26369L85.3959 10.3447C85.1908 10.374 85.0033 10.4707 84.8597 10.6172C84.6862 10.7956 84.5905 11.0356 84.5938 11.2844C84.5971 11.5333 84.6991 11.7706 84.8773 11.9444L90.2591 17.1914L88.9877 24.6006C88.9578 24.773 88.9769 24.9502 89.0427 25.1123C89.1085 25.2743 89.2184 25.4147 89.3599 25.5175C89.5014 25.6203 89.6689 25.6814 89.8434 25.6938C90.0179 25.7063 90.1923 25.6696 90.347 25.5879L97.0003 22.0899L103.654 25.5879C103.835 25.6846 104.046 25.7168 104.248 25.6817C104.758 25.5938 105.101 25.1104 105.013 24.6006L103.742 17.1914L109.123 11.9444C109.27 11.8008 109.367 11.6133 109.396 11.4082C109.475 10.8955 109.118 10.4209 108.605 10.3447Z" fill="#2FC194"/>
<path d="M149.605 10.3447L142.166 9.26369L138.841 2.52247C138.75 2.3379 138.601 2.18849 138.416 2.09767C137.953 1.86915 137.391 2.05958 137.16 2.52247L133.834 9.26369L126.396 10.3447C126.191 10.374 126.003 10.4707 125.86 10.6172C125.686 10.7956 125.591 11.0356 125.594 11.2844C125.597 11.5333 125.699 11.7706 125.877 11.9444L131.259 17.1914L129.988 24.6006C129.958 24.773 129.977 24.9502 130.043 25.1123C130.109 25.2743 130.218 25.4147 130.36 25.5175C130.501 25.6203 130.669 25.6814 130.843 25.6938C131.018 25.7063 131.192 25.6696 131.347 25.5879L138 22.0899L144.654 25.5879C144.835 25.6846 145.046 25.7168 145.248 25.6817C145.758 25.5938 146.101 25.1104 146.013 24.6006L144.742 17.1914L150.123 11.9444C150.27 11.8008 150.367 11.6133 150.396 11.4082C150.475 10.8955 150.118 10.4209 149.605 10.3447Z" fill="#2FC194"/>
<path d="M26.6048 10.3447L19.1664 9.26369L15.8412 2.52247C15.7503 2.3379 15.6009 2.18849 15.4164 2.09767C14.9535 1.86915 14.391 2.05958 14.1595 2.52247L10.8343 9.26369L3.39585 10.3447C3.19077 10.374 3.00327 10.4707 2.85972 10.6172C2.68617 10.7956 2.59054 11.0356 2.59383 11.2844C2.59713 11.5333 2.69908 11.7706 2.8773 11.9444L8.25914 17.1914L6.98765 24.6006C6.95783 24.773 6.97691 24.9502 7.04271 25.1123C7.1085 25.2743 7.2184 25.4147 7.35992 25.5175C7.50145 25.6203 7.66894 25.6814 7.84341 25.6938C8.01788 25.7063 8.19235 25.6696 8.34703 25.5879L15.0003 22.0899L21.6537 25.5879C21.8353 25.6846 22.0463 25.7168 22.2484 25.6817C22.7582 25.5938 23.1009 25.1104 23.013 24.6006L21.7416 17.1914L27.1234 11.9444C27.2699 11.8008 27.3666 11.6133 27.3959 11.4082C27.475 10.8955 27.1175 10.4209 26.6048 10.3447Z" fill="#2FC194"/>
<path d="M67.6048 10.3447L60.1664 9.26369L56.8412 2.52247C56.7503 2.3379 56.6009 2.18849 56.4164 2.09767C55.9535 1.86915 55.391 2.05958 55.1595 2.52247L51.8343 9.26369L44.3959 10.3447C44.1908 10.374 44.0033 10.4707 43.8597 10.6172C43.6862 10.7956 43.5905 11.0356 43.5938 11.2844C43.5971 11.5333 43.6991 11.7706 43.8773 11.9444L49.2591 17.1914L47.9877 24.6006C47.9578 24.773 47.9769 24.9502 48.0427 25.1123C48.1085 25.2743 48.2184 25.4147 48.3599 25.5175C48.5014 25.6203 48.6689 25.6814 48.8434 25.6938C49.0179 25.7063 49.1923 25.6696 49.347 25.5879L56.0003 22.0899L62.6537 25.5879C62.8353 25.6846 63.0463 25.7168 63.2484 25.6817C63.7582 25.5938 64.1009 25.1104 64.013 24.6006L62.7416 17.1914L68.1234 11.9444C68.2699 11.8008 68.3666 11.6133 68.3959 11.4082C68.475 10.8955 68.1175 10.4209 67.6048 10.3447Z" fill="#2FC194"/>
<path d="M190.605 10.3447L183.166 9.26368L179.841 2.52247C179.75 2.3379 179.601 2.18849 179.416 2.09767C178.953 1.86915 178.391 2.05958 178.16 2.52247L174.834 9.26368L167.396 10.3447C167.191 10.374 167.003 10.4707 166.86 10.6172C166.686 10.7956 166.591 11.0356 166.594 11.2844C166.597 11.5333 166.699 11.7706 166.877 11.9443L172.259 17.1914L170.988 24.6006C170.958 24.773 170.977 24.9502 171.043 25.1123C171.109 25.2743 171.218 25.4147 171.36 25.5175C171.501 25.6203 171.669 25.6814 171.843 25.6938C172.018 25.7063 172.192 25.6696 172.347 25.5879L179 22.0899L185.654 25.5879C185.835 25.6846 186.046 25.7168 186.248 25.6817C186.758 25.5938 187.101 25.1104 187.013 24.6006L185.742 17.1914L191.123 11.9443C191.27 11.8008 191.367 11.6133 191.396 11.4082C191.475 10.8955 191.118 10.4209 190.605 10.3447ZM183.477 16.4531L184.535 22.6143L179 19.708L173.466 22.6172L174.524 16.4561L170.047 12.0908L176.235 11.1914L179 5.58693L181.766 11.1914L187.953 12.0908L183.477 16.4531Z" fill="#2FC194"/>
</svg>
