<svg width="64" height="65" viewBox="0 0 64 65" fill="none" xmlns="http://www.w3.org/2000/svg">
<g clip-path="url(#clip0_440_423)">
<path d="M34.9119 12.4775L44.9814 5.46102L49.4492 7.52108L48.8539 19.3201L34.912 12.4775H34.9119ZM26.3359 40.3518L46.1964 21.6407L32.2038 14.7539L26.3359 40.3518ZM59.7805 12.2849L52.5767 8.96327L51.977 20.8529L63.8627 26.6864L59.7805 12.2849ZM50.6119 23.462L30.9023 40.5426L48.7212 32.8258C51.9738 40.5033 50.1322 49.8032 42.2094 55.8043C28.897 65.8877 8.3272 59.1562 5.27268 43.7167C3.10951 32.7818 10.8715 23.2381 21.399 20.5013L24.4226 37.0641L28.6245 12.9047L18.3016 7.60424L20.3588 16.1696C7.40075 19.3926 -2.20968 31.079 0.442087 44.4831C4.15719 63.2615 29.1751 71.4486 45.3664 59.1845C55 51.8876 57.2465 40.5783 53.2947 31.2418L61.0154 28.5679L50.6119 23.462ZM41.8374 4.01134L33.1378 0L20.1112 5.21333L31.8464 10.9729L41.8373 4.01134H41.8374Z" fill="#2FC194"/>
</g>
<defs>
<clipPath id="clip0_440_423">
<rect width="64" height="65" fill="white"/>
</clipPath>
</defs>
</svg>
