<svg width="26" height="26" viewBox="0 0 26 26" fill="none" xmlns="http://www.w3.org/2000/svg">
<path d="M10.8334 19.5001C12.7563 19.4997 14.6238 18.856 16.1385 17.6714L20.9008 22.4337L22.4327 20.9019L17.6703 16.1396C18.8555 14.6247 19.4996 12.7568 19.5001 10.8334C19.5001 6.05483 15.612 2.16675 10.8334 2.16675C6.05483 2.16675 2.16675 6.05483 2.16675 10.8334C2.16675 15.612 6.05483 19.5001 10.8334 19.5001ZM10.8334 4.33341C14.4182 4.33341 17.3334 7.24866 17.3334 10.8334C17.3334 14.4182 14.4182 17.3334 10.8334 17.3334C7.24866 17.3334 4.33341 14.4182 4.33341 10.8334C4.33341 7.24866 7.24866 4.33341 10.8334 4.33341Z" fill="white"/>
<path d="M12.3629 9.30159C12.7735 9.71326 12.9999 10.2571 12.9999 10.8334H15.1666C15.1675 10.2641 15.0556 9.70014 14.8373 9.17429C14.619 8.64843 14.2986 8.17105 13.8947 7.76976C12.2546 6.13176 9.41081 6.13176 7.77173 7.76976L9.3014 9.30376C10.1247 8.48259 11.5439 8.48476 12.3629 9.30159Z" fill="white"/>
</svg>
