<svg width="27" height="27" viewBox="0 0 27 27" fill="none" xmlns="http://www.w3.org/2000/svg">
<path d="M11.25 20.25C13.2468 20.2496 15.1862 19.5811 16.7591 18.351L21.7046 23.2965L23.2954 21.7058L18.3499 16.7603C19.5806 15.1871 20.2495 13.2474 20.25 11.25C20.25 6.28763 16.2124 2.25 11.25 2.25C6.28763 2.25 2.25 6.28763 2.25 11.25C2.25 16.2124 6.28763 20.25 11.25 20.25ZM11.25 4.5C14.9726 4.5 18 7.52738 18 11.25C18 14.9726 14.9726 18 11.25 18C7.52738 18 4.5 14.9726 4.5 11.25C4.5 7.52738 7.52738 4.5 11.25 4.5Z" fill="#F7F7F7"/>
<path d="M12.8381 9.65923C13.2644 10.0867 13.4996 10.6515 13.4996 11.25H15.7496C15.7506 10.6587 15.6343 10.0731 15.4076 9.52702C15.181 8.98094 14.8483 8.4852 14.4288 8.06847C12.7256 6.36747 9.77244 6.36747 8.07031 8.06847L9.65881 9.66148C10.5138 8.80873 11.9876 8.81098 12.8381 9.65923Z" fill="#F7F7F7"/>
</svg>
