<svg width="40" height="40" viewBox="0 0 40 40" fill="none" xmlns="http://www.w3.org/2000/svg">
<path d="M19.8447 24.375C21.005 24.375 22.1178 23.914 22.9383 23.0935C23.7588 22.2731 24.2197 21.1603 24.2197 20C24.2197 19.8718 24.2138 19.7449 24.2029 19.6195L19.4642 24.3582C19.5896 24.3691 19.7162 24.375 19.8447 24.375ZM34.326 6.46714L32.6572 4.79995C32.5986 4.74139 32.5192 4.7085 32.4363 4.7085C32.3535 4.7085 32.274 4.74139 32.2154 4.79995L27.9451 9.07144C25.5894 7.86753 22.9413 7.26558 20.001 7.26558C12.4931 7.26558 6.89158 11.1757 3.19627 18.996C3.04774 19.3106 2.9707 19.6541 2.9707 20.0019C2.9707 20.3497 3.04774 20.6932 3.19627 21.0078C4.67283 24.1179 6.45083 26.6108 8.53025 28.4863L4.39783 32.6171C4.33927 32.6757 4.30638 32.7552 4.30638 32.838C4.30638 32.9209 4.33927 33.0003 4.39783 33.0589L6.06541 34.7265C6.12401 34.7851 6.20346 34.818 6.28631 34.818C6.36915 34.818 6.44861 34.7851 6.50721 34.7265L34.326 6.90933C34.355 6.8803 34.3781 6.84584 34.3938 6.8079C34.4095 6.76997 34.4176 6.7293 34.4176 6.68823C34.4176 6.64717 34.4095 6.6065 34.3938 6.56856C34.3781 6.53063 34.355 6.49616 34.326 6.46714ZM12.9697 20C12.9696 18.8125 13.2771 17.6452 13.8622 16.6119C14.4473 15.5786 15.29 14.7144 16.3084 14.1036C17.3267 13.4928 18.4859 13.1561 19.673 13.1265C20.8601 13.0968 22.0346 13.3751 23.0822 13.9343L21.183 15.8335C20.417 15.5883 19.5984 15.5588 18.8167 15.7482C18.0351 15.9376 17.3208 16.3386 16.7521 16.9073C16.1834 17.476 15.7823 18.1904 15.5929 18.972C15.4035 19.7536 15.433 20.5723 15.6783 21.3382L13.7791 23.2374C13.2461 22.2417 12.968 21.1294 12.9697 20Z" fill="#514E4E"/>
<path d="M36.8051 18.9922C35.4301 16.0964 33.7935 13.735 31.8953 11.9082L26.2648 17.5391C26.7395 18.7797 26.8447 20.1313 26.5677 21.4305C26.2908 22.7297 25.6436 23.9209 24.7043 24.8602C23.765 25.7995 22.5738 26.4467 21.2746 26.7236C19.9755 27.0005 18.6239 26.8953 17.3832 26.4207L12.6074 31.1965C14.823 32.2218 17.2874 32.7344 20.0004 32.7344C27.5082 32.7344 33.1097 28.8242 36.8051 21.0039C36.9536 20.6894 37.0307 20.3459 37.0307 19.998C37.0307 19.6502 36.9536 19.3067 36.8051 18.9922Z" fill="#514E4E"/>
</svg>
