<svg width="21" height="20" viewBox="0 0 21 20" fill="none" xmlns="http://www.w3.org/2000/svg">
<path d="M19.3968 7.2756L13.694 6.41075L11.1446 1.01778C11.075 0.870126 10.9605 0.750595 10.819 0.677938C10.4641 0.495126 10.0328 0.64747 9.85538 1.01778L7.30606 6.41075L1.60323 7.2756C1.446 7.29903 1.30225 7.37638 1.19219 7.49356C1.05914 7.63627 0.985817 7.82825 0.988344 8.02733C0.990871 8.22642 1.06904 8.41631 1.20567 8.55528L5.33174 12.7529L4.35694 18.6803C4.33408 18.8182 4.3487 18.96 4.39915 19.0896C4.44959 19.2193 4.53384 19.3316 4.64235 19.4138C4.75085 19.4961 4.87926 19.5449 5.01302 19.5549C5.14678 19.5648 5.28054 19.5355 5.39913 19.4701L10.5 16.6717L15.6009 19.4701C15.7401 19.5475 15.9019 19.5733 16.0568 19.5451C16.4477 19.4748 16.7105 19.0881 16.6431 18.6803L15.6683 12.7529L19.7943 8.55528C19.9066 8.44044 19.9808 8.29044 20.0032 8.12638C20.0639 7.71622 19.7899 7.33653 19.3968 7.2756ZM13.932 12.1623L14.7429 17.0912L10.5 14.7662L6.25713 17.0936L7.06797 12.1647L3.63594 8.67247L8.37969 7.95294L10.5 3.46934L12.6203 7.95294L17.3641 8.67247L13.932 12.1623Z" fill="#2FC194"/>
</svg>
