<svg width="26" height="28" viewBox="0 0 26 28" fill="none" xmlns="http://www.w3.org/2000/svg">
<path d="M13 0.875C6.23516 0.875 0.75 6.75195 0.75 14C0.75 21.248 6.23516 27.125 13 27.125C19.7648 27.125 25.25 21.248 25.25 14C25.25 6.75195 19.7648 0.875 13 0.875ZM18.8871 10.7686C18.8953 10.9062 18.8953 11.0498 18.8953 11.1904C18.8953 15.4912 15.8383 20.4453 10.252 20.4453C8.5293 20.4453 6.93242 19.9092 5.58711 18.9863C5.8332 19.0156 6.06836 19.0273 6.31992 19.0273C7.7418 19.0273 9.04883 18.5117 10.0906 17.6387C8.75625 17.6094 7.63516 16.6719 7.25234 15.3828C7.71992 15.4561 8.14102 15.4561 8.62227 15.3242C7.93519 15.1747 7.31763 14.7749 6.8745 14.1927C6.43137 13.6106 6.19 12.8821 6.19141 12.1309V12.0898C6.59336 12.333 7.06641 12.4824 7.56133 12.5029C7.14527 12.2058 6.80406 11.8034 6.56796 11.3311C6.33186 10.8589 6.20815 10.3316 6.20781 9.7959C6.20781 9.18945 6.35547 8.63574 6.6207 8.15527C7.38333 9.16114 8.33497 9.98382 9.41377 10.5698C10.4926 11.1558 11.6744 11.4921 12.8824 11.5566C12.4531 9.34473 13.9953 7.55469 15.8492 7.55469C16.7242 7.55469 17.5117 7.94727 18.0668 8.58008C18.7531 8.44238 19.4094 8.16699 19.9945 7.79785C19.7676 8.55078 19.2918 9.18652 18.6602 9.58789C19.2727 9.51758 19.8633 9.33594 20.4102 9.08105C19.9973 9.73145 19.4805 10.3086 18.8871 10.7686Z" fill="#89969F"/>
</svg>
