<svg width="20" height="20" viewBox="0 0 20 20" fill="none" xmlns="http://www.w3.org/2000/svg">
<path d="M5.60249 19.8C4.30949 19.8 3.09849 19.245 2.22449 18.36C0.529492 16.644 0.0574925 13.649 2.43349 11.244L12.1815 1.374C13.1695 0.374003 14.4265 -0.0129969 15.6295 0.314003C16.8125 0.634003 17.7805 1.615 18.0975 2.812C18.4195 4.032 18.0385 5.305 17.0515 6.305L7.72849 15.745C7.19649 16.284 6.59449 16.603 5.99049 16.667C5.39149 16.731 4.82049 16.537 4.42049 16.132C3.69649 15.396 3.59249 14.015 4.79849 12.795L11.3465 6.165C11.6155 5.893 12.0515 5.893 12.3205 6.165C12.5895 6.437 12.5895 6.879 12.3205 7.151L5.77149 13.782C5.20549 14.354 5.15349 14.901 5.39449 15.146C5.50049 15.252 5.66049 15.301 5.84549 15.28C6.12849 15.251 6.45149 15.064 6.75449 14.759L16.0775 5.32C16.7175 4.672 16.9625 3.91 16.7675 3.175C16.67 2.81558 16.4813 2.48743 16.2198 2.22235C15.9582 1.95727 15.6326 1.76426 15.2745 1.662C14.5485 1.465 13.7945 1.714 13.1545 2.362L3.40649 12.232C1.59049 14.071 2.02549 16.188 3.19749 17.375C4.37049 18.562 6.45949 19.004 8.27649 17.163L18.0245 7.293C18.0881 7.22836 18.1639 7.17702 18.2475 7.14197C18.3311 7.10693 18.4208 7.08888 18.5115 7.08888C18.6022 7.08888 18.6919 7.10693 18.7755 7.14197C18.8591 7.17702 18.9349 7.22836 18.9985 7.293C19.1279 7.42466 19.2004 7.60189 19.2004 7.7865C19.2004 7.97112 19.1279 8.14834 18.9985 8.28L9.25049 18.15C8.10149 19.312 6.81449 19.8 5.60249 19.8Z" fill="#89969F"/>
</svg>
