<svg width="19" height="19" viewBox="0 0 19 19" fill="none" xmlns="http://www.w3.org/2000/svg">
<path d="M1.26231 0.382062C1.15245 0.327117 1.02938 0.304107 0.90709 0.315648C0.784803 0.327189 0.66821 0.372818 0.570572 0.447345C0.472935 0.521872 0.398174 0.622305 0.354792 0.73722C0.311411 0.852134 0.301151 0.976918 0.32518 1.09737L2.16662 7.463C2.20095 7.58163 2.26807 7.68816 2.36024 7.77035C2.45241 7.85254 2.56591 7.90705 2.68768 7.92763L10.1558 9.17844C10.5076 9.248 10.5076 9.752 10.1558 9.82156L2.68768 11.0724C2.56591 11.0929 2.45241 11.1475 2.36024 11.2297C2.26807 11.3118 2.20095 11.4184 2.16662 11.537L0.32518 17.9026C0.301151 18.0231 0.311411 18.1479 0.354792 18.2628C0.398174 18.3777 0.472935 18.4781 0.570572 18.5527C0.66821 18.6272 0.784803 18.6728 0.90709 18.6844C1.02938 18.6959 1.15245 18.6729 1.26231 18.6179L18.3248 10.0867C18.4337 10.0321 18.5252 9.94836 18.5892 9.84475C18.6531 9.74113 18.687 9.62177 18.687 9.5C18.687 9.37823 18.6531 9.25887 18.5892 9.15526C18.5252 9.05164 18.4337 8.96787 18.3248 8.91331L1.26231 0.382062Z" fill="white"/>
</svg>
