<svg width="6" height="11" viewBox="0 0 6 11" fill="none" xmlns="http://www.w3.org/2000/svg">
<path d="M5 8C5 8.53043 4.78929 9.03914 4.41421 9.41421C4.03914 9.78929 3.53043 10 3 10C2.46957 10 1.96086 9.78929 1.58579 9.41421C1.21071 9.03914 1 8.53043 1 8V3C1 2.46957 1.21071 1.96086 1.58579 1.58579C1.96086 1.21071 2.46957 1 3 1C3.53043 1 4.03914 1.21071 4.41421 1.58579C4.78929 1.96086 5 2.46957 5 3V8ZM3 0C2.20435 0 1.44129 0.31607 0.87868 0.87868C0.316071 1.44129 0 2.20435 0 3V8C0 8.79565 0.316071 9.55871 0.87868 10.1213C1.44129 10.6839 2.20435 11 3 11C3.79565 11 4.55871 10.6839 5.12132 10.1213C5.68393 9.55871 6 8.79565 6 8V3C6 2.20435 5.68393 1.44129 5.12132 0.87868C4.55871 0.31607 3.79565 0 3 0V0Z" fill="#89969F"/>
</svg>
